<svg xmlns="http://www.w3.org/2000/svg" viewBox="0 0 160 160">
  <defs>
    <clipPath id="senado-square-disc"><ellipse cx="80" cy="125" rx="62" ry="18"/></clipPath>
  </defs>
  <ellipse cx="80" cy="148" rx="48" ry="8" fill="#4a3a32" opacity="0.18"/>
  <!-- colonial arcade building -->
  <g stroke="#4a3a32" stroke-width="4" stroke-linejoin="round" stroke-linecap="round">
    <path d="M124 46 L136 40 V97 L124 103 Z" fill="#e9b44c"/>
    <rect x="20" y="46" width="104" height="57" fill="#f2c14e"/>
    <path d="M16 41 L28 35 H140 L128 41 Z" fill="#ffffff"/>
    <path d="M128 41 L140 35 V42 L128 48 Z" fill="#dfe3e6"/>
    <rect x="16" y="41" width="112" height="7" rx="1.5" fill="#ffffff"/>
    <path d="M52 41 Q72 22 92 41 Z" fill="#ffffff"/>
  </g>
  <circle cx="72" cy="35" r="3" fill="#f2c14e" stroke="#4a3a32" stroke-width="2.2"/>
  <!-- floor band -->
  <rect x="20" y="73" width="104" height="5" fill="#ffffff" stroke="#4a3a32" stroke-width="2.5"/>
  <!-- upper windows: white frames, green shutters -->
  <g stroke="#4a3a32" stroke-width="2.5" stroke-linejoin="round">
    <g fill="#ffffff">
      <rect x="27" y="53" width="12" height="16" rx="1"/>
      <rect x="47" y="53" width="12" height="16" rx="1"/>
      <rect x="66" y="53" width="12" height="16" rx="1"/>
      <rect x="85" y="53" width="12" height="16" rx="1"/>
      <rect x="105" y="53" width="12" height="16" rx="1"/>
    </g>
    <g fill="#3f8f5a" stroke-width="1.6">
      <rect x="29.5" y="55.5" width="7" height="11"/>
      <rect x="49.5" y="55.5" width="7" height="11"/>
      <rect x="68.5" y="55.5" width="7" height="11"/>
      <rect x="87.5" y="55.5" width="7" height="11"/>
      <rect x="107.5" y="55.5" width="7" height="11"/>
    </g>
  </g>
  <!-- ground floor arcade -->
  <g fill="#ffffff" stroke="#4a3a32" stroke-width="2.5" stroke-linejoin="round">
    <path d="M25 103 V89 A8 8 0 0 1 41 89 V103 Z"/>
    <path d="M45 103 V89 A8 8 0 0 1 61 89 V103 Z"/>
    <path d="M64 103 V89 A8 8 0 0 1 80 89 V103 Z"/>
    <path d="M83 103 V89 A8 8 0 0 1 99 89 V103 Z"/>
    <path d="M103 103 V89 A8 8 0 0 1 119 89 V103 Z"/>
  </g>
  <g fill="#a0674b">
    <path d="M28 103 V90 A5 5 0 0 1 38 90 V103 Z"/>
    <path d="M48 103 V90 A5 5 0 0 1 58 90 V103 Z"/>
    <path d="M67 103 V90 A5 5 0 0 1 77 90 V103 Z"/>
    <path d="M86 103 V90 A5 5 0 0 1 96 90 V103 Z"/>
    <path d="M106 103 V90 A5 5 0 0 1 116 90 V103 Z"/>
  </g>
  <rect x="113" y="48" width="9" height="53" fill="#4a3a32" opacity="0.1"/>
  <path d="M19 49 V70" stroke="#ffffff" stroke-width="2" stroke-linecap="round" opacity="0.9"/>
  <!-- plaza disc with wavy calcada -->
  <ellipse cx="80" cy="130" rx="62" ry="18" fill="#d9c7a7" stroke="#4a3a32" stroke-width="4"/>
  <ellipse cx="80" cy="125" rx="62" ry="18" fill="#ffffff"/>
  <g clip-path="url(#senado-square-disc)" fill="none" stroke="#4a3a32" stroke-width="3.6" stroke-linecap="round">
    <path d="M10 112 q7 -6 14 0 t14 0 t14 0 t14 0 t14 0 t14 0 t14 0 t14 0 t14 0 t14 0"/>
    <path d="M10 121 q7 -6 14 0 t14 0 t14 0 t14 0 t14 0 t14 0 t14 0 t14 0 t14 0 t14 0"/>
    <path d="M10 130 q7 -6 14 0 t14 0 t14 0 t14 0 t14 0 t14 0 t14 0 t14 0 t14 0 t14 0"/>
    <path d="M10 139 q7 -6 14 0 t14 0 t14 0 t14 0 t14 0 t14 0 t14 0 t14 0 t14 0 t14 0"/>
  </g>
  <ellipse cx="80" cy="125" rx="62" ry="18" fill="none" stroke="#4a3a32" stroke-width="4"/>
  <!-- fountain with armillary globe -->
  <g stroke="#4a3a32" stroke-width="3.2" stroke-linejoin="round">
    <path d="M62 124 V129 A18 6 0 0 0 98 129 V124 Z" fill="#d9c7a7"/>
    <ellipse cx="80" cy="124" rx="18" ry="6" fill="#8fd3f4"/>
    <path d="M76 124 V114 H84 V124 Z" fill="#d9c7a7"/>
  </g>
  <path d="M71 124.5 Q80 121 89 124.5" fill="none" stroke="#ffffff" stroke-width="2" stroke-linecap="round"/>
  <g fill="none" stroke-linecap="round">
    <circle cx="80" cy="104" r="9.5" stroke="#4a3a32" stroke-width="6"/>
    <ellipse cx="80" cy="104" rx="9.5" ry="3.6" transform="rotate(-25 80 104)" stroke="#4a3a32" stroke-width="6"/>
    <circle cx="80" cy="104" r="9.5" stroke="#f2c14e" stroke-width="2.6"/>
    <ellipse cx="80" cy="104" rx="9.5" ry="3.6" transform="rotate(-25 80 104)" stroke="#f2c14e" stroke-width="2.6"/>
  </g>
  <circle cx="80" cy="104" r="2.6" fill="#e9b44c" stroke="#4a3a32" stroke-width="1.6"/>
</svg>
