<svg xmlns="http://www.w3.org/2000/svg" viewBox="0 0 160 160">
<ellipse cx="80" cy="148" rx="48" ry="8" fill="#4a3a32" opacity="0.18"/>
<g stroke="#4a3a32" stroke-width="4" stroke-linejoin="round" stroke-linecap="round">
<rect x="14" y="62" width="40" height="56" fill="#ef7d57"/><rect x="14" y="70" width="40" height="8" fill="#f2c14e" stroke-width="2.5"/><rect x="14" y="86" width="40" height="8" fill="#f2c14e" stroke-width="2.5"/><rect x="14" y="102" width="40" height="8" fill="#f2c14e" stroke-width="2.5"/><rect x="14" y="59" width="40" height="6" rx="1.5" fill="#f2c14e" stroke-width="3"/>
<polygon points="146,62 152,56 152,112 146,118" fill="#ef7d57"/><polygon points="146,62 152,56 152,112 146,118" fill="#4a3a32" fill-opacity="0.28" stroke="none"/><rect x="106" y="62" width="40" height="56" fill="#ef7d57"/><rect x="106" y="70" width="40" height="8" fill="#f2c14e" stroke-width="2.5"/><rect x="106" y="86" width="40" height="8" fill="#f2c14e" stroke-width="2.5"/><rect x="106" y="102" width="40" height="8" fill="#f2c14e" stroke-width="2.5"/><rect x="106" y="59" width="40" height="6" rx="1.5" fill="#f2c14e" stroke-width="3"/>
<rect x="110" y="64" width="34" height="52" fill="#4a3a32" fill-opacity="0.17" stroke="none"/>
<polygon points="110,40 115,35 115,113 110,118" fill="#ef7d57"/><polygon points="110,40 115,35 115,113 110,118" fill="#4a3a32" fill-opacity="0.28" stroke="none"/><rect x="50" y="40" width="60" height="78" fill="#ef7d57"/><rect x="50" y="50" width="60" height="8" fill="#f2c14e" stroke-width="2.5"/><rect x="50" y="68" width="60" height="8" fill="#f2c14e" stroke-width="2.5"/><rect x="50" y="86" width="60" height="8" fill="#f2c14e" stroke-width="2.5"/><rect x="50" y="37" width="60" height="6" rx="1.5" fill="#f2c14e" stroke-width="3"/>
<rect x="92" y="42" width="16" height="74" fill="#4a3a32" fill-opacity="0.17" stroke="none"/>
<rect x="54" y="44" width="4" height="70" fill="#ffffff" fill-opacity="0.75" stroke="none"/>
<path d="M52 38 Q58 26 66 34 Q72 22 80 22 Q88 22 94 34 Q102 26 108 38 Z" fill="#f2c14e"/>
<path d="M80 22 Q88 22 94 34 Q102 26 108 38 H80 Z" fill="#4a3a32" fill-opacity="0.17" stroke="none"/>
<circle cx="80" cy="18" r="4" fill="#f2c14e" stroke-width="3"/>
<path d="M26 59 Q34 48 42 59 Z" fill="#f2c14e" stroke-width="3"/>
<path d="M118 59 Q126 48 134 59 Z" fill="#f2c14e" stroke-width="3"/>
<path d="M70 118 V104 Q80 94 90 104 V118 Z" fill="#f2c14e" stroke-width="3"/>
<path d="M6 116 H154 Q158 146 132 147 H28 Q2 146 6 116 Z" fill="#8fd3f4"/>
<path d="M18 138 q4 -3 8 0 q4 3 8 0 M118 140 q4 -3 8 0 q4 3 8 0 M70 142 q4 -3 8 0 q4 3 8 0" fill="none" stroke="#ffffff" stroke-width="2.5"/>
<path d="M26 128 Q23 97 15 111" fill="none" stroke="#4a3a32" stroke-width="5.5"/><path d="M26 128 Q23 97 15 111" fill="none" stroke="#ffffff" stroke-width="2.5"/>
<path d="M30 128 Q33 97 41 111" fill="none" stroke="#4a3a32" stroke-width="5.5"/><path d="M30 128 Q33 97 41 111" fill="none" stroke="#ffffff" stroke-width="2.5"/>
<path d="M28 128 V94" fill="none" stroke="#4a3a32" stroke-width="7"/><path d="M28 128 V94" fill="none" stroke="#ffffff" stroke-width="4"/>
<circle cx="28" cy="92" r="3.5" fill="#ffffff" stroke-width="2.5"/>
<circle cx="22" cy="96" r="1.8" fill="#ffffff" stroke-width="1.5"/>
<circle cx="34" cy="96" r="1.8" fill="#ffffff" stroke-width="1.5"/>
<circle cx="14" cy="116" r="1.8" fill="#ffffff" stroke-width="1.5"/>
<circle cx="42" cy="116" r="1.8" fill="#ffffff" stroke-width="1.5"/>
<ellipse cx="28" cy="128" rx="10" ry="3" fill="#ffffff" stroke-width="2.5"/>
<path d="M50 128 Q47 106 39 116" fill="none" stroke="#4a3a32" stroke-width="5.5"/><path d="M50 128 Q47 106 39 116" fill="none" stroke="#ffffff" stroke-width="2.5"/>
<path d="M54 128 Q57 106 65 116" fill="none" stroke="#4a3a32" stroke-width="5.5"/><path d="M54 128 Q57 106 65 116" fill="none" stroke="#ffffff" stroke-width="2.5"/>
<path d="M52 128 V104" fill="none" stroke="#4a3a32" stroke-width="7"/><path d="M52 128 V104" fill="none" stroke="#ffffff" stroke-width="4"/>
<circle cx="52" cy="102" r="3.5" fill="#ffffff" stroke-width="2.5"/>
<circle cx="46" cy="106" r="1.8" fill="#ffffff" stroke-width="1.5"/>
<circle cx="58" cy="106" r="1.8" fill="#ffffff" stroke-width="1.5"/>
<circle cx="38" cy="121" r="1.8" fill="#ffffff" stroke-width="1.5"/>
<circle cx="66" cy="121" r="1.8" fill="#ffffff" stroke-width="1.5"/>
<ellipse cx="52" cy="128" rx="10" ry="3" fill="#ffffff" stroke-width="2.5"/>
<path d="M132 128 Q129 99 121 112" fill="none" stroke="#4a3a32" stroke-width="5.5"/><path d="M132 128 Q129 99 121 112" fill="none" stroke="#ffffff" stroke-width="2.5"/>
<path d="M136 128 Q139 99 147 112" fill="none" stroke="#4a3a32" stroke-width="5.5"/><path d="M136 128 Q139 99 147 112" fill="none" stroke="#ffffff" stroke-width="2.5"/>
<path d="M134 128 V96" fill="none" stroke="#4a3a32" stroke-width="7"/><path d="M134 128 V96" fill="none" stroke="#ffffff" stroke-width="4"/>
<circle cx="134" cy="94" r="3.5" fill="#ffffff" stroke-width="2.5"/>
<circle cx="128" cy="98" r="1.8" fill="#ffffff" stroke-width="1.5"/>
<circle cx="140" cy="98" r="1.8" fill="#ffffff" stroke-width="1.5"/>
<circle cx="120" cy="117" r="1.8" fill="#ffffff" stroke-width="1.5"/>
<circle cx="148" cy="117" r="1.8" fill="#ffffff" stroke-width="1.5"/>
<ellipse cx="134" cy="128" rx="10" ry="3" fill="#ffffff" stroke-width="2.5"/>
<line x1="2" y1="58" x2="158" y2="82" stroke-width="3"/>
<line x1="94" y1="72.2" x2="94" y2="80" stroke-width="3"/>
<circle cx="94" cy="72.2" r="3.5" fill="#a9b1b8" stroke-width="2"/>
<rect x="74" y="84" width="40" height="28" rx="8" fill="#f2c14e"/>
<rect x="79" y="88" width="30" height="12" rx="4" fill="#8fd3f4" stroke-width="2.5"/>
<line x1="94" y1="88" x2="94" y2="100" stroke-width="2.5"/>
<path d="M84 90 L82 97" stroke="#ffffff" stroke-width="2.5"/>
<rect x="102" y="86" width="10" height="24" rx="4" fill="#4a3a32" fill-opacity="0.17" stroke="none"/>
<path d="M74 105 H114" stroke="#4a3a32" stroke-width="3"/>
<path d="M77 86 Q77 74 94 74 Q111 74 111 86 Z" fill="#c8372d"/>
<path d="M84 81 Q86 77 91 76.5" stroke="#ffffff" stroke-opacity="0.7" stroke-width="2.5"/>
<circle cx="94" cy="73" r="3" fill="#f2c14e" stroke-width="2"/>
</g>
<path d="M140 34 Q141.7 38.3 146 40 Q141.7 41.7 140 46 Q138.3 41.7 134 40 Q138.3 38.3 140 34 Z" fill="#ffffff" fill-opacity="1.0" stroke="none"/>
</svg>
